<svg width="90" height="32" viewBox="0 0 314 76" fill="none" xmlns="http://www.w3.org/2000/svg">
<path d="M1.66708 59C0.882646 59 0.490428 58.7124 0.490428 58.1371C0.490428 57.6665 0.83035 57.3527 1.51019 57.1958L3.3144 56.882C4.41261 56.6728 5.1186 56.3852 5.43237 56.0191C5.79844 55.6531 5.98148 54.9209 5.98148 53.8227V7.69789C5.98148 6.59969 5.79844 5.86755 5.43237 5.50147C5.1186 5.13541 4.41261 4.84778 3.3144 4.6386L1.51019 4.32482C0.83035 4.16793 0.490428 3.85416 0.490428 3.3835C0.490428 2.80825 0.882646 2.52062 1.66708 2.52062H26.9259C28.1287 2.52062 28.7824 3.12202 28.887 4.32482L29.5146 17.3465C29.6191 18.2355 29.2792 18.68 28.4948 18.68C27.8672 18.68 27.5012 18.3401 27.3966 17.6602L27.0044 15.0716C26.586 12.3522 25.8539 10.2342 24.8079 8.71766C23.762 7.20109 22.5854 6.12902 21.278 5.50147C19.9706 4.82163 18.7155 4.48171 17.5127 4.48171C15.2117 4.48171 13.6428 4.84778 12.8061 5.57992C11.9693 6.31206 11.551 7.43642 11.551 8.95299V27.4657C11.551 28.1978 11.917 28.5639 12.6492 28.5639H15.3947C17.6957 28.5639 19.1077 27.3349 19.6307 24.877L20.4935 20.9549C20.6504 20.275 21.0426 19.9351 21.6702 19.9351C22.2977 19.9351 22.6115 20.3796 22.6115 21.2686V38.9184C22.6115 39.8075 22.2977 40.252 21.6702 40.252C21.0426 40.252 20.6504 39.9121 20.4935 39.2322L19.6307 35.3885C19.2646 33.5581 18.7416 32.3553 18.0618 31.7801C17.4342 31.2048 16.5191 30.9172 15.3163 30.9172H12.6492C11.917 30.9172 11.551 31.2833 11.551 32.0154V53.4305C11.551 54.5287 11.7079 55.3132 12.0216 55.7838C12.3877 56.2022 13.1198 56.4898 14.2181 56.6467L17.9049 57.1958C18.4802 57.3004 18.7678 57.588 18.7678 58.0587C18.7678 58.6862 18.3756 59 17.5911 59H1.66708ZM38.5595 59.706C36.0493 59.706 33.8006 58.8693 31.8133 57.1958C29.8261 55.5223 28.2311 53.169 27.0283 50.1359C25.8778 47.0504 25.3025 43.4943 25.3025 39.4675C25.3025 35.3362 25.9039 31.7016 27.1067 28.5639C28.3095 25.4261 29.9568 22.9682 32.0486 21.1902C34.1405 19.4121 36.4676 18.5231 39.0301 18.5231C42.1156 18.5231 44.5996 19.8044 46.4823 22.3668C48.4172 24.877 49.3847 28.9823 49.3847 34.6825C49.3847 36.4082 48.731 37.2711 47.4236 37.2711H32.5193C31.4734 37.2711 30.9504 37.8725 30.9504 39.0753C30.9504 44.6187 31.761 48.7762 33.3822 51.5479C35.0034 54.3195 37.069 55.7054 39.5792 55.7054C41.5665 55.7054 43.1876 54.9994 44.4427 53.5874C45.6978 52.1754 46.7176 49.796 47.502 46.449C47.6589 45.8738 47.9988 45.5861 48.5218 45.5861C49.1494 45.5861 49.3847 46.1091 49.2278 47.155C48.3911 51.8093 47.0575 55.0778 45.2272 56.9605C43.3968 58.7908 41.1743 59.706 38.5595 59.706ZM32.284 35.31H40.2068C42.717 35.31 43.9721 34.0026 43.9721 31.3879C43.9721 27.9886 43.5537 25.3216 42.717 23.3866C41.8802 21.4517 40.6251 20.4842 38.9517 20.4842C36.9122 20.4842 35.1864 21.6609 33.7744 24.0142C32.4147 26.3675 31.5257 29.7144 31.1073 34.0549C31.0027 34.8917 31.395 35.31 32.284 35.31ZM49.8137 59C49.0292 59 48.637 58.7124 48.637 58.1371C48.637 57.6665 48.9769 57.3527 49.6568 57.1958L50.5981 57.0389C51.6963 56.8297 52.4023 56.516 52.7161 56.0976C53.0822 55.6269 53.2652 54.8425 53.2652 53.7443V27.3872C53.2652 26.4459 53.1083 25.8184 52.7945 25.5046C52.533 25.1385 52.0362 24.9032 51.3041 24.7986L49.6568 24.5633C48.9769 24.511 48.637 24.2233 48.637 23.7004C48.637 23.282 49.0554 22.9944 49.8921 22.8375C51.5133 22.576 52.7422 22.1577 53.579 21.5824C54.468 21.0072 55.3832 20.3012 56.3245 19.4644C56.7951 18.9938 57.1874 18.7584 57.5011 18.7584C57.9718 18.7584 58.2071 19.0722 58.2071 19.6998V23.2297C58.2071 23.5958 58.364 23.8834 58.6778 24.0926C58.9916 24.2495 59.3315 24.1449 59.6976 23.7788C61.8417 21.7393 63.6982 20.3535 65.2671 19.6213C66.8882 18.8892 68.5094 18.5231 70.1306 18.5231C71.6471 18.5231 72.9807 18.9415 74.1312 19.7782C75.334 20.5626 76.223 21.7654 76.7983 23.3866C76.9551 23.805 77.2166 24.0665 77.5827 24.171C78.0011 24.2233 78.3933 24.0665 78.7594 23.7004C80.9035 21.7131 82.76 20.3535 84.3288 19.6213C85.8977 18.8892 87.4927 18.5231 89.1139 18.5231C91.3103 18.5231 93.0884 19.3598 94.4481 21.0333C95.8601 22.6545 96.566 25.0601 96.566 28.2501V53.7443C96.566 54.8425 96.7229 55.6269 97.0367 56.0976C97.4028 56.516 98.1349 56.8036 99.2331 56.9605L100.959 57.1958C101.534 57.3004 101.822 57.6142 101.822 58.1371C101.822 58.7124 101.508 59 100.88 59H87.4666C86.7344 59 86.3684 58.7124 86.3684 58.1371C86.3684 57.6142 86.656 57.3004 87.2313 57.1958L88.3295 57.0389C89.5323 56.882 90.3167 56.5682 90.6828 56.0976C91.0488 55.6269 91.2319 54.8425 91.2319 53.7443V29.113C91.2319 26.5505 90.7612 24.7463 89.8199 23.7004C88.9309 22.6545 87.7019 22.1315 86.133 22.1315C84.5642 22.1315 83.126 22.6283 81.8187 23.6219C80.5636 24.5633 79.5438 25.8445 78.7594 27.4657C77.9749 29.0346 77.5827 30.7865 77.5827 32.7214V53.7443C77.5827 54.8425 77.7657 55.6269 78.1318 56.0976C78.4979 56.516 79.2562 56.8036 80.4067 56.9605L82.1324 57.1958C82.7077 57.3004 82.9953 57.6142 82.9953 58.1371C82.9953 58.7124 82.6815 59 82.054 59H68.7186C67.9864 59 67.6204 58.7124 67.6204 58.1371C67.6204 57.6142 67.908 57.3004 68.4832 57.1958L69.5815 57.0389C70.6797 56.882 71.3857 56.5682 71.6994 56.0976C72.0655 55.6269 72.2485 54.8425 72.2485 53.7443V29.113C72.2485 26.5505 71.7779 24.7463 70.8365 23.7004C69.9475 22.6545 68.7186 22.1315 67.1497 22.1315C65.5808 22.1315 64.1427 22.6283 62.8353 23.6219C61.5802 24.5633 60.5604 25.8445 59.776 27.4657C58.9916 29.0346 58.5994 30.7865 58.5994 32.7214V53.7443C58.5994 54.8425 58.7562 55.6269 59.07 56.0976C59.4361 56.5682 60.1682 56.8559 61.2664 56.9605L63.3844 57.1958C63.9597 57.3004 64.2473 57.588 64.2473 58.0587C64.2473 58.6862 63.8551 59 63.0706 59H49.8137ZM107.713 11.5416C106.615 11.5416 105.673 11.1494 104.889 10.365C104.157 9.58054 103.791 8.58692 103.791 7.38412C103.791 6.18132 104.157 5.21385 104.889 4.48171C105.673 3.69727 106.615 3.30505 107.713 3.30505C108.811 3.30505 109.726 3.69727 110.459 4.48171C111.191 5.21385 111.557 6.18132 111.557 7.38412C111.557 8.58692 111.191 9.58054 110.459 10.365C109.726 11.1494 108.811 11.5416 107.713 11.5416ZM101.124 59C100.339 59 99.9471 58.7124 99.9471 58.1371C99.9471 57.6665 100.287 57.3527 100.967 57.1958L101.908 57.0389C103.216 56.8297 104.052 56.516 104.418 56.0976C104.784 55.6269 104.967 54.8425 104.967 53.7443V27.3872C104.967 26.4459 104.811 25.8184 104.497 25.5046C104.235 25.1385 103.739 24.9032 103.006 24.7986L101.359 24.5633C100.679 24.511 100.339 24.2233 100.339 23.7004C100.339 23.282 100.758 22.9944 101.594 22.8375C103.216 22.576 104.523 22.1577 105.517 21.5824C106.51 21.0072 107.478 20.3012 108.419 19.4644C108.89 18.9938 109.282 18.7584 109.596 18.7584C110.066 18.7584 110.302 19.0722 110.302 19.6998V53.7443C110.302 54.8425 110.459 55.6269 110.772 56.0976C111.086 56.5682 111.687 56.8559 112.576 56.9605L114.538 57.1958C115.113 57.3004 115.4 57.588 115.4 58.0587C115.4 58.6862 115.008 59 114.224 59H101.124ZM142.901 59.706C140.391 59.706 138.038 58.9739 135.841 57.5096C133.645 55.993 131.71 53.9273 130.036 51.3125C128.415 48.6977 127.134 45.6384 126.193 42.1346C125.304 38.5785 124.859 34.7609 124.859 30.6819C124.859 26.6028 125.304 22.8114 126.193 19.3075C127.134 15.8037 128.415 12.7444 130.036 10.1296C131.71 7.46257 133.645 5.39688 135.841 3.9326C138.038 2.46832 140.391 1.73618 142.901 1.73618C145.411 1.73618 147.738 2.46832 149.883 3.9326C152.079 5.39688 154.014 7.46257 155.687 10.1296C157.361 12.7444 158.642 15.8037 159.531 19.3075C160.472 22.8114 160.943 26.6028 160.943 30.6819C160.943 34.7609 160.472 38.5785 159.531 42.1346C158.642 45.6384 157.361 48.6977 155.687 51.3125C154.014 53.9273 152.079 55.993 149.883 57.5096C147.738 58.9739 145.411 59.706 142.901 59.706ZM142.901 57.588C146.614 57.588 149.516 55.3654 151.608 50.9203C153.7 46.4752 154.746 39.729 154.746 30.6819C154.746 21.6347 153.7 14.9147 151.608 10.5219C149.516 6.07673 146.614 3.85416 142.901 3.85416C139.24 3.85416 136.338 6.07673 134.194 10.5219C132.102 14.9147 131.056 21.6347 131.056 30.6819C131.056 39.729 132.102 46.4752 134.194 50.9203C136.338 55.3654 139.24 57.588 142.901 57.588ZM166.06 75.0809C164.648 75.0809 163.523 74.5841 162.687 73.5905C161.85 72.6492 161.432 71.551 161.432 70.2959C161.432 69.3023 161.719 68.4655 162.294 67.7857C162.87 67.1058 163.654 66.7659 164.648 66.7659C165.484 66.7659 166.086 66.949 166.452 67.315C166.818 67.6811 167.079 68.0995 167.236 68.5701C167.393 69.0408 167.55 69.4591 167.707 69.8252C167.864 70.1913 168.178 70.3743 168.648 70.3743C169.224 70.3743 169.747 69.956 170.217 69.1192C170.688 68.3348 171.342 66.6352 172.178 64.0204C172.701 62.4515 173.015 61.0918 173.12 59.9413C173.277 58.7908 173.25 57.5619 173.041 56.2545C172.884 54.9471 172.492 53.3521 171.865 51.4694L163.314 24.2495C162.948 22.9944 162.582 22.1838 162.216 21.8177C161.902 21.4517 161.379 21.1902 160.647 21.0333L159.47 20.798C158.791 20.6411 158.451 20.3012 158.451 19.7782C158.451 19.2552 158.817 18.9938 159.549 18.9938H172.492C173.224 18.9938 173.59 19.2552 173.59 19.7782C173.59 20.3535 173.25 20.6934 172.571 20.798L171.315 20.9549C170.06 21.1117 169.25 21.4255 168.884 21.8962C168.57 22.3145 168.596 23.099 168.962 24.2495L175.865 47.2335C176.022 47.7564 176.257 48.0179 176.571 48.0179C176.937 48.0179 177.199 47.7564 177.356 47.2335L184.023 25.6615C184.442 24.2495 184.546 23.2036 184.337 22.5237C184.18 21.7916 183.448 21.3209 182.141 21.1117L180.493 20.798C179.813 20.6411 179.474 20.3012 179.474 19.7782C179.474 19.2552 179.84 18.9938 180.572 18.9938H190.534C191.266 18.9938 191.632 19.2814 191.632 19.8567C191.632 20.3796 191.319 20.7457 190.691 20.9549L189.985 21.1902C189.201 21.4517 188.547 21.9223 188.024 22.6022C187.501 23.282 186.952 24.4587 186.377 26.1321L174.688 62.6084C173.538 66.2691 172.492 68.9885 171.551 70.7665C170.662 72.5446 169.799 73.6951 168.962 74.2181C168.125 74.7933 167.158 75.0809 166.06 75.0809ZM200.947 59.706C198.437 59.706 196.188 58.8693 194.201 57.1958C192.213 55.5223 190.618 53.169 189.416 50.1359C188.265 47.0504 187.69 43.4943 187.69 39.4675C187.69 35.3362 188.291 31.7016 189.494 28.5639C190.697 25.4261 192.344 22.9682 194.436 21.1902C196.528 19.4121 198.855 18.5231 201.418 18.5231C204.503 18.5231 206.987 19.8044 208.87 22.3668C210.805 24.877 211.772 28.9823 211.772 34.6825C211.772 36.4082 211.118 37.2711 209.811 37.2711H194.907C193.861 37.2711 193.338 37.8725 193.338 39.0753C193.338 44.6187 194.148 48.7762 195.77 51.5479C197.391 54.3195 199.456 55.7054 201.967 55.7054C203.954 55.7054 205.575 54.9994 206.83 53.5874C208.085 52.1754 209.105 49.796 209.889 46.449C210.046 45.8738 210.386 45.5861 210.909 45.5861C211.537 45.5861 211.772 46.1091 211.615 47.155C210.778 51.8093 209.445 55.0778 207.615 56.9605C205.784 58.7908 203.562 59.706 200.947 59.706ZM194.671 35.31H202.594C205.104 35.31 206.359 34.0026 206.359 31.3879C206.359 27.9886 205.941 25.3216 205.104 23.3866C204.268 21.4517 203.013 20.4842 201.339 20.4842C199.3 20.4842 197.574 21.6609 196.162 24.0142C194.802 26.3675 193.913 29.7144 193.495 34.0549C193.39 34.8917 193.782 35.31 194.671 35.31ZM226.007 59.706C223.863 59.706 221.797 59.0261 219.81 57.6665C218.66 56.882 217.614 57.0912 216.672 58.294C216.149 58.8693 215.757 59.2353 215.496 59.3922C215.234 59.6014 214.973 59.706 214.711 59.706C214.136 59.706 213.927 59.3399 214.084 58.6078C214.293 57.405 214.45 55.8623 214.554 53.9796C214.659 52.097 214.711 49.5868 214.711 46.449V8.7961C214.711 7.85478 214.554 7.22723 214.241 6.91346C213.979 6.54739 213.482 6.31206 212.75 6.20747L211.103 5.97213C210.528 5.86754 210.24 5.55377 210.24 5.03081C210.24 4.50786 210.528 4.19408 211.103 4.08949C212.567 3.77572 213.796 3.40965 214.79 2.99128C215.783 2.57291 216.62 2.15455 217.3 1.73618C218.137 1.21323 218.764 0.95175 219.183 0.95175C219.758 0.95175 220.045 1.37011 220.045 2.20684V21.5824C220.045 22.0008 220.202 22.2884 220.516 22.4453C220.882 22.5499 221.274 22.393 221.693 21.9746C223.941 19.6736 226.399 18.5231 229.066 18.5231C231.472 18.5231 233.59 19.3337 235.42 20.9549C237.303 22.5237 238.767 24.7202 239.813 27.5441C240.911 30.3681 241.461 33.6889 241.461 37.5065C241.461 41.847 240.781 45.6907 239.421 49.0377C238.061 52.3846 236.205 54.9994 233.852 56.882C231.55 58.7647 228.936 59.706 226.007 59.706ZM225.85 57.7449C228.779 57.7449 231.132 56.0191 232.91 52.5676C234.741 49.1161 235.656 44.4618 235.656 38.6047C235.656 33.2182 234.871 29.113 233.302 26.289C231.734 23.4651 229.511 22.0531 226.635 22.0531C224.857 22.0531 223.314 22.7852 222.007 24.2495C220.699 25.7138 220.045 27.7533 220.045 30.3681V50.1359C220.045 52.4892 220.568 54.3457 221.614 55.7054C222.713 57.0651 224.124 57.7449 225.85 57.7449ZM256.628 59.706C253.961 59.706 251.556 58.817 249.412 57.0389C247.32 55.2086 245.646 52.7245 244.391 49.5868C243.136 46.449 242.508 42.9452 242.508 39.0753C242.508 35.2054 243.136 31.7278 244.391 28.6423C245.646 25.5569 247.346 23.099 249.49 21.2686C251.634 19.4383 254.014 18.5231 256.628 18.5231C259.295 18.5231 261.675 19.4383 263.767 21.2686C265.911 23.099 267.61 25.5569 268.866 28.6423C270.121 31.7278 270.748 35.2054 270.748 39.0753C270.748 42.9452 270.121 46.449 268.866 49.5868C267.663 52.7245 265.989 55.2086 263.845 57.0389C261.701 58.817 259.295 59.706 256.628 59.706ZM256.628 57.7449C262.067 57.7449 264.786 51.5217 264.786 39.0753C264.786 26.6812 262.067 20.4842 256.628 20.4842C251.19 20.4842 248.47 26.6812 248.47 39.0753C248.47 51.5217 251.19 57.7449 256.628 57.7449ZM270.372 59C269.744 59 269.431 58.7124 269.431 58.1371C269.431 57.6142 269.718 57.3004 270.293 57.1958L271.392 57.0389C272.49 56.882 273.3 56.5682 273.823 56.0976C274.346 55.6269 274.608 54.8425 274.608 53.7443V8.7961C274.608 7.85478 274.451 7.20109 274.137 6.83502C273.876 6.46895 273.379 6.25976 272.647 6.20747L270.843 5.97213C270.267 5.86754 269.98 5.55377 269.98 5.03081C269.98 4.50786 270.267 4.19408 270.843 4.08949C272.307 3.77572 273.562 3.40965 274.608 2.99128C275.654 2.57291 276.517 2.15455 277.196 1.73618C278.033 1.21323 278.661 0.95175 279.079 0.95175C279.654 0.95175 279.942 1.37011 279.942 2.20684V53.7443C279.942 54.8425 280.099 55.6269 280.413 56.0976C280.779 56.516 281.511 56.8036 282.609 56.9605L284.413 57.1958C284.989 57.3004 285.276 57.6142 285.276 58.1371C285.276 58.7124 284.962 59 284.335 59H270.372ZM291.53 59.706C289.334 59.706 287.53 59.0261 286.118 57.6665C284.706 56.2545 284 54.398 284 52.097C284 49.8482 284.706 47.7303 286.118 45.743C287.53 43.7035 289.465 41.8732 291.922 40.252C294.38 38.6308 297.178 37.3234 300.316 36.3298C300.996 36.1206 301.336 35.6761 301.336 34.9963V27.8579C301.336 25.3477 300.943 23.5696 300.159 22.5237C299.375 21.4255 298.302 20.8764 296.943 20.8764C295.635 20.8764 294.433 21.4778 293.334 22.6806C292.288 23.8311 291.53 25.7922 291.06 28.5639C290.798 30.2374 290.223 31.4663 289.334 32.2507C288.497 32.9829 287.634 33.3489 286.745 33.3489C285.281 33.3489 284.549 32.6168 284.549 31.1525C284.549 29.636 284.967 28.1455 285.804 26.6812C286.693 25.1647 287.843 23.805 289.255 22.6022C290.667 21.3471 292.21 20.3535 293.884 19.6213C295.557 18.8892 297.23 18.5231 298.904 18.5231C304.081 18.5231 306.67 21.5301 306.67 27.5441V51.5479C306.67 53.7443 307.219 54.8425 308.317 54.8425C308.997 54.8425 309.625 54.398 310.2 53.5089C310.775 52.5676 311.063 50.9988 311.063 48.8023C311.063 47.9656 311.403 47.5472 312.082 47.5472C312.71 47.5472 313.024 47.9917 313.024 48.8808C313.024 52.6984 312.344 55.47 310.984 57.1958C309.677 58.8693 308.186 59.706 306.513 59.706C305.258 59.706 304.264 59.2092 303.532 58.2156C302.8 57.1696 302.303 55.9407 302.042 54.5287C301.989 54.0058 301.754 53.7443 301.336 53.7443C300.97 53.692 300.604 53.9273 300.237 54.4503C298.982 56.176 297.701 57.4834 296.394 58.3725C295.086 59.2615 293.465 59.706 291.53 59.706ZM293.648 56.0976C295.008 56.0976 296.263 55.6269 297.413 54.6856C298.564 53.692 299.505 52.3846 300.237 50.7634C300.97 49.1423 301.336 47.3119 301.336 45.2724V39.546C301.336 38.5524 300.787 38.2647 299.688 38.6831C296.498 39.8336 294.014 41.4286 292.236 43.4682C290.51 45.4554 289.648 47.861 289.648 50.685C289.648 54.2934 290.981 56.0976 293.648 56.0976Z" fill="white"/>
</svg>
